<?xml version="1.0" encoding="UTF-8" standalone="no"?>
<!-- Created with Inkscape (http://www.inkscape.org/) -->

<svg
   width="135.20209mm"
   height="135.20209mm"
   viewBox="0 0 135.20209 135.20209"
   version="1.1"
   id="svg1"
   inkscape:version="1.3.2 (091e20e, 2023-11-25, custom)"
   sodipodi:docname="logo.svg"
   xmlns:inkscape="http://www.inkscape.org/namespaces/inkscape"
   xmlns:sodipodi="http://sodipodi.sourceforge.net/DTD/sodipodi-0.dtd"
   xmlns="http://www.w3.org/2000/svg"
   xmlns:svg="http://www.w3.org/2000/svg">
  <sodipodi:namedview
     id="namedview1"
     pagecolor="#ffffff"
     bordercolor="#000000"
     borderopacity="0.25"
     inkscape:showpageshadow="2"
     inkscape:pageopacity="0.0"
     inkscape:pagecheckerboard="0"
     inkscape:deskcolor="#d1d1d1"
     inkscape:document-units="mm"
     showguides="false"
     inkscape:zoom="0.73890575"
     inkscape:cx="-60.224189"
     inkscape:cy="347.13493"
     inkscape:window-width="2560"
     inkscape:window-height="1369"
     inkscape:window-x="1912"
     inkscape:window-y="-8"
     inkscape:window-maximized="1"
     inkscape:current-layer="g25">
    <sodipodi:guide
       position="65.705767,258.14089"
       orientation="1,0"
       id="guide42"
       inkscape:locked="false" />
  </sodipodi:namedview>
  <defs
     id="defs1" />
  <circle
     style="display:inline;fill:#d1c4e9;fill-opacity:1;stroke:none;stroke-width:0.264583;stroke-linecap:round;stroke-linejoin:round;stroke-dasharray:none;stroke-opacity:1"
     id="path51"
     cx="67.601044"
     cy="-67.601044"
     r="67.601044"
     transform="scale(1,-1)" />
  <g
     inkscape:label="v1 copy"
     inkscape:groupmode="layer"
     id="g25"
     style="display:inline;stroke-width:1.01231"
     transform="matrix(0.98784191,0,0,0.98782797,-36.574031,-39.543805)">
    <g
       id="g51"
       inkscape:label="Elephant">
      <ellipse
         style="display:inline;fill:#6a0dad;fill-opacity:1;stroke:none;stroke-width:0.267842;stroke-linecap:round;stroke-linejoin:round;stroke-dasharray:none;stroke-opacity:1"
         id="path40"
         cx="106.10073"
         cy="143.74696"
         rx="53.407223"
         ry="9.4220238"
         inkscape:label="shadow" />
      <path
         d="m 135.70822,61.189543 c -6.52969,-0.08505 -11.7442,6.995296 -14.24103,11.150063 a 27.902498,25.050017 0 0 1 11.89246,20.503177 27.902498,25.050017 0 0 1 -1.44832,7.771667 c 6.23408,5.257 9.90386,11.75855 11.22706,16.73789 2.46215,0.0364 4.42734,-0.53324 5.40153,-2.07837 4.4429,-7.0476 -4.84669,-9.30555 -4.64473,-20.207761 0.20185,-10.902052 9.69331,-23.620925 -2.42354,-31.898422 -2.00383,-1.368838 -3.93507,-1.954437 -5.76343,-1.978244 z"
         style="display:inline;fill:#f0ac00;stroke:#000000;stroke-width:0.267842;stroke-linecap:round;stroke-linejoin:round"
         id="path37"
         inkscape:label="right ear" />
      <path
         d="m 67.818663,117.20151 c 1.347403,-4.97304 4.986083,-11.41421 11.163652,-16.62737 A 27.902498,25.050017 0 0 1 77.554557,92.842783 27.902498,25.050017 0 0 1 88.010108,73.346242 C 85.836024,69.464059 80.212345,60.863907 72.899084,61.201079 c -1.739319,0.08033 -3.568814,0.673358 -5.462096,1.966708 -12.116961,8.277497 -2.62551,20.99637 -2.423556,31.898422 0.201948,10.902211 -9.087643,13.160161 -4.644762,20.207761 1.231479,1.95346 4.042575,2.35211 7.449993,1.92754 z"
         style="display:inline;fill:#f0ac00;stroke:#000000;stroke-width:0.267842;stroke-linecap:round;stroke-linejoin:round"
         id="path35"
         inkscape:label="left ear" />
      <path
         d="m 80.576601,99.306664 c 6.062547,-4.583972 14.27138,-7.940195 24.820909,-7.959608 10.58543,0.01956 18.8346,3.397814 24.92606,8.005723 a 25.995143,23.336914 0 0 0 1.129,-6.509996 25.995143,23.336914 0 0 0 -25.99526,-23.337253 25.995143,23.336914 0 0 0 -25.995214,23.337253 25.995143,23.336914 0 0 0 1.114505,6.463881 z"
         style="display:inline;fill:#faca41;stroke:#000000;stroke-width:0.267842;stroke-linecap:round;stroke-linejoin:round"
         id="path36"
         inkscape:label="head" />
      <path
         style="display:inline;fill:#ffe082;fill-opacity:1;stroke:#000000;stroke-width:0.267842;stroke-linecap:round;stroke-linejoin:round;stroke-dasharray:none;stroke-opacity:1"
         d="m 69.352796,121.0063 c 0,8.36691 0.506563,14.587 5.363919,22.18297 h 21.118989 c -4.57011,-10.38228 0.143222,-18.14515 9.618656,-18.04422 9.4755,-0.10093 14.19445,7.66194 9.62434,18.04422 h 21.11906 c 4.85735,-7.59597 5.36391,-13.81606 5.36391,-22.18297 0,-8.36668 -11.23636,-28.117841 -36.16087,-28.163697 -24.924443,0.04585 -36.048004,19.797017 -36.048004,28.163697 z"
         id="path22"
         sodipodi:nodetypes="zcccccscz"
         inkscape:label="body" />
      <g
         id="g50"
         inkscape:label="tail 3"
         transform="matrix(0.79760002,0,0,0.79736498,20.991864,13.213874)"
         style="stroke-width:1.2694">
        <path
           style="display:inline;fill:#f0ac00;fill-opacity:1;stroke:#000000;stroke-width:0.335859;stroke-linecap:round;stroke-linejoin:round;stroke-dasharray:none;stroke-opacity:1"
           d="m 108.76798,116.8907 c -2.99062,10.3603 -12.287864,14.4125 -14.009668,14.4125 -1.721803,0 -5.236832,-5.23683 -5.236832,-5.23683 0,0 3.76196,2.72442 5.099716,2.84046 1.521817,0.0895 7.967154,-6.40306 8.772824,-13.60683"
           id="path48"
           sodipodi:nodetypes="czccc"
           inkscape:label="tail 3" />
        <path
           style="fill:#6a0dad;fill-opacity:1;stroke:#000000;stroke-width:0.335859;stroke-linecap:round;stroke-linejoin:round;stroke-dasharray:none;stroke-opacity:1"
           d="m 91.17958,128.30131 c 1.728507,-1.35899 2.921159,-4.10004 0.511997,-6.41769 -3.3319,-3.20534 -11.563647,-2.89466 -11.563647,-2.89466 0,0 5.14846,2.7295 5.203872,5.47149 0.09867,4.88252 4.119271,5.19985 5.847778,3.84086 z"
           id="path50"
           sodipodi:nodetypes="zscsz" />
      </g>
    </g>
  </g>
</svg>
